<?xml version="1.0" encoding="UTF-8"?>
<svg id="Layer_1" xmlns="http://www.w3.org/2000/svg" version="1.1" viewBox="0 0 800 800">
  <!-- Generator: Adobe Illustrator 29.1.0, SVG Export Plug-In . SVG Version: 2.1.0 Build 142)  -->
  <defs>
    <style>
      .st0 {
        fill: #fff;
      }

      .st0, .st1 {
        fill-rule: evenodd;
      }

      .st2, .st1 {
        fill: #1c274c;
      }
    </style>
  </defs>
  <path class="st1" d="M398.1,41.7h3.8c76.9,0,137.2,0,184.3,6.3,48.2,6.5,86.2,20,116,49.8s43.3,67.8,49.8,116c6.3,47,6.3,107.4,6.3,184.3v3.8c0,76.9,0,137.2-6.3,184.3-6.5,48.2-20,86.2-49.8,116s-67.8,43.3-116,49.8c-47,6.3-107.3,6.3-184.3,6.3h-3.8c-76.9,0-137.2,0-184.3-6.3-48.2-6.5-86.2-20-116-49.8s-43.3-67.8-49.8-116c-6.3-47-6.3-107.3-6.3-184.3v-3.8c0-76.9,0-137.2,6.3-184.3,6.5-48.2,20-86.2,49.8-116s67.8-43.3,116-49.8c47-6.3,107.4-6.3,184.3-6.3h0ZM208.3,99.4c-35.5,6.1-58.1,16.6-75.2,33.8-17.1,17.1-27.7,39.7-33.8,75.2h108.9v-108.9h0ZM258.3,94v612c37.5,2.3,83.6,2.3,141.7,2.3s104.1,0,141.7-2.3V94c-37.5-2.3-83.6-2.3-141.7-2.3s-104.1,0-141.7,2.3ZM591.7,99.4v108.9h108.9c-6.1-35.5-16.7-58.1-33.8-75.2-17.1-17.1-39.7-27.7-75.2-33.8h0ZM706,258.3h-114.3v116.7h116.7c0-46.5-.4-84.7-2.3-116.7h-.1ZM708.3,425h-116.7v116.7h114.3c2-32,2.3-70.2,2.3-116.7h.1ZM700.6,591.7h-108.9v108.9c35.5-6.1,58.1-16.7,75.2-33.8s27.7-39.7,33.8-75.2h0ZM208.3,700.6v-108.9h-108.9c6.1,35.5,16.6,58.1,33.8,75.2,17.1,17.1,39.7,27.7,75.2,33.8h0ZM94,541.7h114.3v-116.7h-116.7c0,46.5.4,84.7,2.3,116.7h0ZM91.7,375h116.7v-116.7h-114.3c-2,32-2.3,70.2-2.3,116.7h0ZM426,324.9c.6.4,1.1.7,1.7,1.1l1.5,1c16.3,11,30.9,20.8,41.2,30.2,11.1,10.3,21.3,23.8,21.3,42.7s-10.2,32.4-21.3,42.7c-10.3,9.4-24.8,19.2-41.2,30.2l-1.5,1c-.6.4-1.1.8-1.7,1.1-16.5,11.1-31.3,21-43.7,26.8-13.1,6-31.6,11.2-49.4-.6-16.3-10.8-20.8-28.8-22.7-43.3-1.9-14.6-1.9-33.9-1.9-56.3v-3.4c0-22.4,0-41.6,1.9-56.3,1.8-14.5,6.4-32.5,22.7-43.3,17.8-11.8,36.3-6.6,49.4-.5,12.4,5.8,27.3,15.7,43.7,26.8h0ZM360.6,343.3c.2,0,.4.2.6.3,8.4,3.9,19.8,11.5,38.5,24,18.4,12.3,29.7,20,36.7,26.5,3.3,3,4.6,4.9,5,5.7,0,0,0,.2.1.2,0,0,0,.1-.1.2-.5.8-1.7,2.6-5,5.7-7.1,6.5-18.4,14.2-36.7,26.5-18.7,12.5-30.1,20.1-38.5,24-.2.1-.4.2-.6.3-.3-1.3-.6-3-.8-5.1-1.4-11.1-1.5-27-1.5-51.6s0-40.6,1.5-51.6c.3-2.1.6-3.8.8-5.1Z"/>
  <rect class="st2" x="235" y="67" width="333" height="664"/>
  <path class="st0" d="M355,292.9c43.1,30.8,86.1,61.6,129.2,92.4,10.2,7.3,10,22.5-.3,29.6-43,29.2-85.9,58.4-128.9,87.7-12,8.1-28.1-.4-28.2-14.9l-.3-180c0-14.7,16.6-23.2,28.5-14.7Z"/>
</svg>