<?xml version="1.0" encoding="UTF-8"?>
<svg id="Layer_1" xmlns="http://www.w3.org/2000/svg" version="1.1" viewBox="0 0 800 800">
  <!-- Generator: Adobe Illustrator 29.1.0, SVG Export Plug-In . SVG Version: 2.1.0 Build 142)  -->
  <defs>
    <style>
      .st0 {
        fill: #f0f7f4;
      }

      .st1 {
        fill: #1c274c;
        isolation: isolate;
        stroke: #1c274c;
        stroke-miterlimit: 10;
        stroke-width: 42px;
      }
    </style>
  </defs>
  <path class="st1" d="M733.3,466.7v-73.4c0-87.7,0-131.6-25.7-160.1-2.4-2.6-4.9-5.1-7.5-7.5-28.5-25.6-72.4-25.6-160.1-25.6h-12.5c-38.5,0-57.7,0-75.6-5.1-9.8-2.8-19.3-6.7-28.3-11.7-16.3-9.1-29.9-22.7-57.1-49.8l-18.3-18.3c-9.1-9.1-13.7-13.7-18.5-17.6-20.6-17.1-46-27.6-72.7-30.1-6.2-.6-12.6-.6-25.5-.6-29.4,0-44.1,0-56.4,2.3-53.9,10.2-96.1,52.4-106.3,106.3-2.3,12.3-2.3,27-2.3,56.4v235c0,125.7,0,188.6,39.1,227.6,39.1,39.1,101.9,39.1,227.6,39.1h133.3c125.7,0,188.6,0,227.6-39.1,39.1-39,39.1-101.9,39.1-227.6v-.2Z"/>
  <path class="st0" d="M408.3,333.3c0-13.8,11.2-25,25-25h166.7c13.8,0,25,11.2,25,25s-11.2,25-25,25h-166.7c-13.8,0-25-11.2-25-25Z"/>
</svg>