<?xml version="1.0" encoding="UTF-8"?>
<svg id="Layer_1" xmlns="http://www.w3.org/2000/svg" version="1.1" viewBox="0 0 800 800">
  <!-- Generator: Adobe Illustrator 29.1.0, SVG Export Plug-In . SVG Version: 2.1.0 Build 142)  -->
  <defs>
    <style>
      .st0, .st1 {
        fill: #fff;
      }

      .st0, .st2 {
        stroke: #1c274c;
        stroke-miterlimit: 10;
        stroke-width: 31px;
      }

      .st2 {
        fill: #1c274c;
        fill-rule: evenodd;
      }
    </style>
  </defs>
  <g>
    <path class="st2" d="M466.7,733.3h-133.3c-125.7,0-188.6,0-227.6-39.1-39.1-39-39.1-101.9-39.1-227.6v-133.3c0-125.7,0-188.6,39.1-227.6,39.1-39.1,102.2-39.1,228.6-39.1s36.4,0,50,.6c-.4,2.7-.7,5.4-.7,8.1l-.3,94.5c0,36.6,0,68.9,3.5,94.9,3.8,28.2,12.5,56.5,35.6,79.5,23,23,51.3,31.8,79.5,35.6,26.1,3.5,58.4,3.5,94.9,3.5h135.1c1.4,17.8,1.4,39.7,1.4,68.8v14.6c0,125.7,0,188.6-39.1,227.6-39,39.1-101.9,39.1-227.6,39.1Z"/>
    <path class="st0" d="M383.6,75.3l-.3,94.5c0,36.6,0,68.9,3.5,94.9,3.8,28.2,12.5,56.5,35.6,79.5,23,23,51.3,31.8,79.5,35.6,26,3.5,58.4,3.5,94.9,3.5h135.1c.4,5.2.7,10.7.9,16.7h.5c0-8.9,0-13.4-.3-18.6-1.9-29.8-14.3-64-32-88.1-3.1-4.2-5.2-6.8-9.5-11.9-26.4-31.6-61.2-71-91.6-98.1-27-24.1-64-50.5-96.3-72-27.7-18.5-41.6-27.8-60.6-34.7-5-1.8-11.7-3.8-16.9-5.1-12.8-3.2-25.3-4.2-42.8-4.6l.3,8.5Z"/>
  </g>
  <path class="st1" d="M200,458.3c-13.8,0-25,11.2-25,25s11.2,25,25,25h266.7c13.8,0,25-11.2,25-25s-11.2-25-25-25H200Z"/>
  <path class="st1" d="M200,575c-13.8,0-25,11.2-25,25s11.2,25,25,25h183.3c13.8,0,25-11.2,25-25s-11.2-25-25-25h-183.3Z"/>
</svg>