<?xml version="1.0" encoding="UTF-8"?>
<svg id="Layer_1" xmlns="http://www.w3.org/2000/svg" version="1.1" viewBox="0 0 800 800">
  <!-- Generator: Adobe Illustrator 29.1.0, SVG Export Plug-In . SVG Version: 2.1.0 Build 142)  -->
  <defs>
    <style>
      .st0 {
        fill: #fff;
      }

      .st1 {
        fill: none;
      }

      .st1, .st2 {
        stroke: #1c274c;
        stroke-linecap: round;
        stroke-linejoin: round;
        stroke-width: 37px;
      }

      .st2 {
        fill: #1c274c;
      }
    </style>
  </defs>
  <rect class="st2" x="133.3" y="133.3" width="533.4" height="533.4" rx="57.7" ry="57.7"/>
  <path class="st1" d="M133.3,333.3v-133.3c0-36.8,29.8-66.7,66.7-66.7h200M134.2,611c5.2,31.6,32.7,55.7,65.8,55.7h400c36.8,0,66.7-29.8,66.7-66.7v-127M134.2,611c-.6-3.6-.9-7.2-.9-11v-100M134.2,611l127.4-127.4c22.7-19.8,55.8-22,80.9-5.3l17,11.3c24.2,16.1,56,14.7,78.6-3.4l88.3-70.6c22.5-18,53.8-19.4,77.8-4,2.6,1.7,5,3.8,7.2,6.1l55.3,55.3M666.7,473V200c0-36.8-29.8-66.7-66.7-66.7h-33.3M366.7,300c0,36.8-29.8,66.7-66.7,66.7s-66.7-29.8-66.7-66.7,29.8-66.7,66.7-66.7,66.7,29.8,66.7,66.7Z"/>
  <circle class="st0" cx="300" cy="300" r="66.7"/>
  <path class="st0" d="M129,601c73.3-125,131-152,172.2-150.4,42.6,1.7,54.1,32.4,98.8,31.4s82-98,165-104,61.7,11,110,81l-24,177c-35.7,11.7-71.3,23.3-107,35-93.7,1-187.3,2-281,3-45.9,13.7-91.8,3.1-116-27-12.9-16-16.8-33.9-18-46Z"/>
  <rect class="st1" x="133.3" y="133.3" width="533.4" height="533.4" rx="57.7" ry="57.7"/>
</svg>